<svg xmlns="http://www.w3.org/2000/svg" xmlns:xlink="http://www.w3.org/1999/xlink" version="1.1" width="281px" height="321px" viewBox="-0.5 -0.5 281 321"><defs/><g><rect x="0" y="0" width="40" height="320" fill="#ffffff" stroke="#ffffff" pointer-events="all"/><path d="M 0 320 L 240 0 L 280 0 L 40 320 Z" fill="#ffffff" stroke="#ffffff" stroke-miterlimit="10" transform="translate(0,160)scale(1,-1)translate(0,-160)" pointer-events="all"/><rect x="240" y="0" width="40" height="320" fill="#ffffff" stroke="#ffffff" pointer-events="all"/><path d="M 0 320 L 80 280 L 120 280 L 40 320 Z" fill="#ffffff" stroke="#ffffff" stroke-miterlimit="10" transform="rotate(180,60,300)" pointer-events="all"/><rect x="10" y="280" width="70" height="20" fill="#ffffff" stroke="#ffffff" pointer-events="all"/><path d="M 70 230 L 90 270 L 70 310 Z" fill="#ffffff" stroke="#ffffff" stroke-miterlimit="10" transform="rotate(270,80,270)" pointer-events="all"/><path d="M 160 40 L 240 0 L 280 0 L 200 40 Z" fill="#ffffff" stroke="#ffffff" stroke-miterlimit="10" pointer-events="all"/><rect x="200" y="20" width="70" height="20" fill="#ffffff" stroke="#ffffff" pointer-events="all"/><path d="M 190 10 L 210 50 L 190 90 Z" fill="#ffffff" stroke="#ffffff" stroke-miterlimit="10" transform="rotate(90,200,50)" pointer-events="all"/></g></svg>